{
  "asset": {
    "version": "2.0",
    "generator": "THREE.GLTFExporter"
  },
  "scenes": [
    {
      "nodes": [
        8,
        9
      ],
      "name": "Scene"
    }
  ],
  "scene": 0,
  "nodes": [
    {
      "matrix": [
        45.017426757089744,
        2.5191058750436217,
        0.23737231199613182,
        0,
        -0.479455559794863,
        8.579619981703955,
        -0.12265775634289505,
        0,
        -0.0725145953861129,
        0.1671903359892001,
        11.978020119801327,
        0,
        -15.866396341737575,
        62.11201090710582,
        0.25404035566808525,
        1
      ],
      "name": "Box",
      "mesh": 0
    },
    {
      "name": "Obj_000008",
      "mesh": 1
    },
    {
      "name": "Obj_000007",
      "mesh": 2
    },
    {
      "name": "Obj_000003",
      "mesh": 3
    },
    {
      "name": "Obj_000002",
      "mesh": 4
    },
    {
      "name": "Obj_000001",
      "mesh": 5
    },
    {
      "name": "Obj_000004",
      "mesh": 6
    },
    {
      "name": "Obj_009",
      "mesh": 7
    },
    {
      "matrix": [
        0.986013352697028,
        -0.14874755427116437,
        -0.07517867650812383,
        0,
        0.14732779140973556,
        0.9887935361011659,
        -0.024121874779572488,
        0,
        0.07792425926177012,
        0.012708582253695295,
        0.9968782783046309,
        0,
        0.6134795254162029,
        -4.385620963046831,
        -11.341413144237993,
        1
      ],
      "name": "Dirigible indoor.obj",
      "children": [
        0,
        1,
        2,
        3,
        4,
        5,
        6,
        7
      ]
    },
    {
      "matrix": [
        1,
        0,
        0,
        0,
        0,
        1,
        0,
        0,
        0,
        0,
        1,
        0,
        -98.40414876400952,
        182.73091874150944,
        -15.085760514651525,
        1
      ],
      "name": "PointLight",
      "extensions": {
        "KHR_lights_punctual": {
          "light": 0
        }
      }
    }
  ],
  "bufferViews": [
    {
      "buffer": 0,
      "byteOffset": 0,
      "byteLength": 288,
      "target": 34962,
      "byteStride": 12
    },
    {
      "buffer": 0,
      "byteOffset": 288,
      "byteLength": 288,
      "target": 34962,
      "byteStride": 12
    },
    {
      "buffer": 0,
      "byteOffset": 576,
      "byteLength": 192,
      "target": 34962,
      "byteStride": 8
    },
    {
      "buffer": 0,
      "byteOffset": 768,
      "byteLength": 72,
      "target": 34963
    },
    {
      "buffer": 0,
      "byteOffset": 840,
      "byteLength": 5904,
      "target": 34962,
      "byteStride": 12
    },
    {
      "buffer": 0,
      "byteOffset": 6744,
      "byteLength": 5904,
      "target": 34962,
      "byteStride": 12
    },
    {
      "buffer": 0,
      "byteOffset": 12648,
      "byteLength": 3936,
      "target": 34962,
      "byteStride": 8
    },
    {
      "buffer": 0,
      "byteOffset": 16584,
      "byteLength": 5760,
      "target": 34962,
      "byteStride": 12
    },
    {
      "buffer": 0,
      "byteOffset": 22344,
      "byteLength": 5760,
      "target": 34962,
      "byteStride": 12
    },
    {
      "buffer": 0,
      "byteOffset": 28104,
      "byteLength": 3840,
      "target": 34962,
      "byteStride": 8
    },
    {
      "buffer": 0,
      "byteOffset": 31944,
      "byteLength": 59400,
      "target": 34962,
      "byteStride": 12
    },
    {
      "buffer": 0,
      "byteOffset": 91344,
      "byteLength": 59400,
      "target": 34962,
      "byteStride": 12
    },
    {
      "buffer": 0,
      "byteOffset": 150744,
      "byteLength": 39600,
      "target": 34962,
      "byteStride": 8
    },
    {
      "buffer": 0,
      "byteOffset": 190344,
      "byteLength": 59400,
      "target": 34962,
      "byteStride": 12
    },
    {
      "buffer": 0,
      "byteOffset": 249744,
      "byteLength": 59400,
      "target": 34962,
      "byteStride": 12
    },
    {
      "buffer": 0,
      "byteOffset": 309144,
      "byteLength": 39600,
      "target": 34962,
      "byteStride": 8
    },
    {
      "buffer": 0,
      "byteOffset": 348744,
      "byteLength": 5760,
      "target": 34962,
      "byteStride": 12
    },
    {
      "buffer": 0,
      "byteOffset": 354504,
      "byteLength": 5760,
      "target": 34962,
      "byteStride": 12
    },
    {
      "buffer": 0,
      "byteOffset": 360264,
      "byteLength": 3840,
      "target": 34962,
      "byteStride": 8
    },
    {
      "buffer": 0,
      "byteOffset": 364104,
      "byteLength": 59400,
      "target": 34962,
      "byteStride": 12
    },
    {
      "buffer": 0,
      "byteOffset": 423504,
      "byteLength": 59400,
      "target": 34962,
      "byteStride": 12
    },
    {
      "buffer": 0,
      "byteOffset": 482904,
      "byteLength": 39600,
      "target": 34962,
      "byteStride": 8
    },
    {
      "buffer": 0,
      "byteOffset": 522504,
      "byteLength": 59400,
      "target": 34962,
      "byteStride": 12
    },
    {
      "buffer": 0,
      "byteOffset": 581904,
      "byteLength": 59400,
      "target": 34962,
      "byteStride": 12
    },
    {
      "buffer": 0,
      "byteOffset": 641304,
      "byteLength": 39600,
      "target": 34962,
      "byteStride": 8
    }
  ],
  "buffers": [
    {
      "byteLength": 680904,
      "uri": "data:application/octet-stream;base64,"
    }
  ],
  "accessors": [
    {
      "bufferView": 0,
      "componentType": 5126,
      "count": 24,
      "max": [
        0.5,
        0.5,
        0.5
      ],
      "min": [
        -0.5,
        -0.5,
        -0.5
      ],
      "type": "VEC3"
    },
    {
      "bufferView": 1,
      "componentType": 5126,
      "count": 24,
      "max": [
        1,
        1,
        1
      ],
      "min": [
        -1,
        -1,
        -1
      ],
      "type": "VEC3"
    },
    {
      "bufferView": 2,
      "componentType": 5126,
      "count": 24,
      "max": [
        1,
        1
      ],
      "min": [
        0,
        0
      ],
      "type": "VEC2"
    },
    {
      "bufferView": 3,
      "componentType": 5123,
      "count": 36,
      "max": [
        23
      ],
      "min": [
        0
      ],
      "type": "SCALAR"
    },
    {
      "bufferView": 4,
      "componentType": 5126,
      "count": 492,
      "max": [
        67.41840362548828,
        124.79810333251953,
        1.2064000368118286
      ],
      "min": [
        37.68949890136719,
        107.87200164794922,
        -1.9895999431610107
      ],
      "type": "VEC3"
    },
    {
      "bufferView": 5,
      "componentType": 5126,
      "count": 492,
      "max": [
        1,
        1,
        1
      ],
      "min": [
        -0.9581000208854675,
        -0.9581000208854675,
        -1
      ],
      "type": "VEC3"
    },
    {
      "bufferView": 6,
      "componentType": 5126,
      "count": 492,
      "max": [
        0.9984999895095825,
        0.9984999895095825
      ],
      "min": [
        0,
        0
      ],
      "type": "VEC2"
    },
    {
      "bufferView": 7,
      "componentType": 5126,
      "count": 480,
      "max": [
        67.41840362548828,
        87.4800033569336,
        27.638099670410156
      ],
      "min": [
        37.68949890136719,
        76.24919891357422,
        11.381699562072754
      ],
      "type": "VEC3"
    },
    {
      "bufferView": 8,
      "componentType": 5126,
      "count": 480,
      "max": [
        1,
        0.8662999868392944,
        0.8659999966621399
      ],
      "min": [
        -0.9581000208854675,
        -0.866100013256073,
        -0.8296999931335449
      ],
      "type": "VEC3"
    },
    {
      "bufferView": 9,
      "componentType": 5126,
      "count": 480,
      "max": [
        0.9984999895095825,
        0.9984999895095825
      ],
      "min": [
        0,
        0
      ],
      "type": "VEC2"
    },
    {
      "bufferView": 10,
      "componentType": 5126,
      "count": 4950,
      "max": [
        85.56320190429688,
        93.35469818115234,
        21.578500747680664
      ],
      "min": [
        -92.91549682617188,
        62.28239822387695,
        -22.3617000579834
      ],
      "type": "VEC3"
    },
    {
      "bufferView": 11,
      "componentType": 5126,
      "count": 4950,
      "max": [
        0.9599000215530396,
        -0.1062999963760376,
        0.707099974155426
      ],
      "min": [
        -0.9911999702453613,
        -1,
        -0.707099974155426
      ],
      "type": "VEC3"
    },
    {
      "bufferView": 12,
      "componentType": 5126,
      "count": 4950,
      "max": [
        1,
        0.5
      ],
      "min": [
        0,
        0.25
      ],
      "type": "VEC2"
    },
    {
      "bufferView": 13,
      "componentType": 5126,
      "count": 4950,
      "max": [
        85.56320190429688,
        124.4271011352539,
        21.578500747680664
      ],
      "min": [
        -92.91549682617188,
        93.35469818115234,
        -22.3617000579834
      ],
      "type": "VEC3"
    },
    {
      "bufferView": 14,
      "componentType": 5126,
      "count": 4950,
      "max": [
        0.9599000215530396,
        1,
        0.707099974155426
      ],
      "min": [
        -0.9911999702453613,
        0.1062999963760376,
        -0.707099974155426
      ],
      "type": "VEC3"
    },
    {
      "bufferView": 15,
      "componentType": 5126,
      "count": 4950,
      "max": [
        1,
        0.5
      ],
      "min": [
        0,
        0.25
      ],
      "type": "VEC2"
    },
    {
      "bufferView": 16,
      "componentType": 5126,
      "count": 480,
      "max": [
        67.41840362548828,
        87.4800033569336,
        -12.164899826049805
      ],
      "min": [
        37.68949890136719,
        76.24919891357422,
        -28.421300888061523
      ],
      "type": "VEC3"
    },
    {
      "bufferView": 17,
      "componentType": 5126,
      "count": 480,
      "max": [
        1,
        0.866100013256073,
        0.8296999931335449
      ],
      "min": [
        -0.9581000208854675,
        -0.866100013256073,
        -0.8659999966621399
      ],
      "type": "VEC3"
    },
    {
      "bufferView": 18,
      "componentType": 5126,
      "count": 480,
      "max": [
        0.9984999895095825,
        0.9984999895095825
      ],
      "min": [
        0,
        0
      ],
      "type": "VEC2"
    },
    {
      "bufferView": 19,
      "componentType": 5126,
      "count": 4950,
      "max": [
        85.56320190429688,
        115.32489776611328,
        -0.39160001277923584
      ],
      "min": [
        -92.91549682617188,
        71.38469696044922,
        -31.463899612426758
      ],
      "type": "VEC3"
    },
    {
      "bufferView": 20,
      "componentType": 5126,
      "count": 4950,
      "max": [
        0.9599000215530396,
        0.707099974155426,
        -0.1062999963760376
      ],
      "min": [
        -0.9911999702453613,
        -0.707099974155426,
        -1
      ],
      "type": "VEC3"
    },
    {
      "bufferView": 21,
      "componentType": 5126,
      "count": 4950,
      "max": [
        0.9994999766349792,
        0.8755999803543091
      ],
      "min": [
        -0.0357000008225441,
        0.12439999729394913
      ],
      "type": "VEC2"
    },
    {
      "bufferView": 22,
      "componentType": 5126,
      "count": 4950,
      "max": [
        85.56320190429688,
        115.32489776611328,
        30.54290008544922
      ],
      "min": [
        -92.91549682617188,
        71.38469696044922,
        -0.5295000076293945
      ],
      "type": "VEC3"
    },
    {
      "bufferView": 23,
      "componentType": 5126,
      "count": 4950,
      "max": [
        0.9599000215530396,
        0.707099974155426,
        1
      ],
      "min": [
        -0.9911999702453613,
        -0.707099974155426,
        0.1062999963760376
      ],
      "type": "VEC3"
    },
    {
      "bufferView": 24,
      "componentType": 5126,
      "count": 4950,
      "max": [
        1.0392999649047852,
        0.8064000010490417
      ],
      "min": [
        0.0005000000237487257,
        0.19359999895095825
      ],
      "type": "VEC2"
    }
  ],
  "materials": [
    {
      "pbrMetallicRoughness": {
        "metallicFactor": 0.5,
        "roughnessFactor": 0.5
      }
    },
    {
      "pbrMetallicRoughness": {
        "metallicFactor": 0.5,
        "roughnessFactor": 0.5
      },
      "name": "piso"
    },
    {
      "pbrMetallicRoughness": {
        "metallicFactor": 0.5,
        "roughnessFactor": 0.5
      },
      "name": "piso"
    },
    {
      "pbrMetallicRoughness": {
        "metallicFactor": 0.5,
        "roughnessFactor": 0.5
      },
      "name": "piso"
    },
    {
      "pbrMetallicRoughness": {
        "metallicFactor": 0.5,
        "roughnessFactor": 0.5
      },
      "name": "piso"
    },
    {
      "pbrMetallicRoughness": {
        "metallicFactor": 0.5,
        "roughnessFactor": 0.5
      },
      "name": "piso"
    },
    {
      "pbrMetallicRoughness": {
        "metallicFactor": 0.5,
        "roughnessFactor": 0.5
      },
      "name": "logo"
    },
    {
      "pbrMetallicRoughness": {
        "metallicFactor": 0.5,
        "roughnessFactor": 0.5
      },
      "name": "logo"
    }
  ],
  "meshes": [
    {
      "primitives": [
        {
          "mode": 4,
          "attributes": {
            "POSITION": 0,
            "NORMAL": 1,
            "TEXCOORD_0": 2
          },
          "indices": 3,
          "material": 0
        }
      ]
    },
    {
      "primitives": [
        {
          "mode": 4,
          "attributes": {
            "POSITION": 4,
            "NORMAL": 5,
            "TEXCOORD_0": 6
          },
          "material": 1
        }
      ]
    },
    {
      "primitives": [
        {
          "mode": 4,
          "attributes": {
            "POSITION": 7,
            "NORMAL": 8,
            "TEXCOORD_0": 9
          },
          "material": 2
        }
      ]
    },
    {
      "primitives": [
        {
          "mode": 4,
          "attributes": {
            "POSITION": 10,
            "NORMAL": 11,
            "TEXCOORD_0": 12
          },
          "material": 3
        }
      ]
    },
    {
      "primitives": [
        {
          "mode": 4,
          "attributes": {
            "POSITION": 13,
            "NORMAL": 14,
            "TEXCOORD_0": 15
          },
          "material": 4
        }
      ]
    },
    {
      "primitives": [
        {
          "mode": 4,
          "attributes": {
            "POSITION": 16,
            "NORMAL": 17,
            "TEXCOORD_0": 18
          },
          "material": 5
        }
      ]
    },
    {
      "primitives": [
        {
          "mode": 4,
          "attributes": {
            "POSITION": 19,
            "NORMAL": 20,
            "TEXCOORD_0": 21
          },
          "material": 6
        }
      ]
    },
    {
      "primitives": [
        {
          "mode": 4,
          "attributes": {
            "POSITION": 22,
            "NORMAL": 23,
            "TEXCOORD_0": 24
          },
          "material": 7
        }
      ]
    }
  ],
  "extensions": {
    "KHR_lights_punctual": {
      "lights": [
        {
          "name": "PointLight",
          "color": [
            1,
            1,
            1
          ],
          "intensity": 1,
          "type": "point"
        }
      ]
    }
  },
  "extensionsUsed": [
    "KHR_lights_punctual"
  ]
}