<?xml version="1.0" encoding="utf-8"?>
<!-- Generator: Adobe Illustrator 16.0.0, SVG Export Plug-In . SVG Version: 6.00 Build 0)  -->
<!DOCTYPE svg PUBLIC "-//W3C//DTD SVG 1.1//EN" "http://www.w3.org/Graphics/SVG/1.1/DTD/svg11.dtd">
<svg version="1.1" id="Layer_1" xmlns="http://www.w3.org/2000/svg" xmlns:xlink="http://www.w3.org/1999/xlink" x="0px" y="0px"
	 width="200.071px" height="314.712px" viewBox="0 0 200.071 314.712" enable-background="new 0 0 200.071 314.712"
	 xml:space="preserve">
<g>
	<defs>
		<path id="SVGID_1_" d="M83.612,13.815l-0.169,0.672l-0.68,0.092c-4.883,0.682-11.428,4.302-13.972,9.483
			c-0.081,0.876-1.021,0.902-1.358,0.911c-14.522,0.209-27.942,6.603-38.794,18.498c-5.207,5.7-9.76,12.554-13.535,20.367
			C11.724,70.83,8.9,78.585,6.72,86.879c-2.125,8.104-3.68,16.858-4.629,26.154c-8.193,80.507,28.196,180.827,93.528,196.06
			l0.39,0.094l0.224,0.331c1.49,2.238,3.22,4.033,3.801,4.191c0.59-0.165,2.311-1.953,3.803-4.191l0.227-0.331l0.392-0.094
			c65.323-15.233,101.717-115.546,93.527-196.06c-1.647-16.155-5.147-30.75-10.405-43.379l-0.846-1.991
			c-4.187-9.583-9.331-17.722-15.297-24.191c-10.852-11.895-24.266-18.289-38.811-18.498c-0.316-0.008-1.273-0.034-1.341-0.926
			c-2.548-5.169-9.057-8.835-13.953-9.522l-0.679-0.093l-0.169-0.674c-0.034-0.132-3.208-12.752-16.437-12.752
			C86.858,1.007,83.75,13.272,83.612,13.815"/>
	</defs>
	<clipPath id="SVGID_2_">
		<use xlink:href="#SVGID_1_"  overflow="visible"/>
	</clipPath>
	
		<radialGradient id="SVGID_3_" cx="-262.4282" cy="528.5781" r="3.8598" gradientTransform="matrix(33.9068 0 0 -33.9171 8998.1406 18085.2129)" gradientUnits="userSpaceOnUse">
		<stop  offset="0" style="stop-color:#FFFFFF"/>
		<stop  offset="0.1656" style="stop-color:#FFFFFF"/>
		<stop  offset="0.341" style="stop-color:#F0E4D5"/>
		<stop  offset="0.6987" style="stop-color:#DCBB95"/>
		<stop  offset="0.865" style="stop-color:#D4AD7F"/>
		<stop  offset="1" style="stop-color:#D4AD7F"/>
	</radialGradient>
	<rect x="-6.103" y="1.007" clip-path="url(#SVGID_2_)" fill="url(#SVGID_3_)" width="212.275" height="312.702"/>
</g>
<path fill="#231F20" d="M198.909,112.939c-0.682-6.658-1.692-13.285-3.108-19.827c-1.306-6.016-2.959-11.963-5.027-17.765
	c-2.176-6.113-4.817-12.113-8.021-17.761c-3.008-5.307-6.54-10.289-10.651-14.797c-10.963-12.009-24.502-18.631-39.514-18.849
	l-0.332,0.004c-2.435-5.34-9.158-9.683-14.996-10.497c0,0-3.14-13.385-17.225-13.448C85.947,0.062,82.81,13.448,82.81,13.448
	c-5.839,0.814-12.558,5.156-14.999,10.497l-0.327-0.004c-15.012,0.217-28.552,6.839-39.512,18.849
	c-4.114,4.508-7.646,9.49-10.657,14.797c-3.199,5.648-5.838,11.648-8.019,17.761c-2.065,5.802-3.718,11.75-5.026,17.765
	c-1.421,6.542-2.431,13.169-3.107,19.827c-8.306,81.543,28.363,181.778,94.309,197.159c1.008,1.504,3.3,4.613,4.562,4.613
	c1.263,0,3.559-3.109,4.564-4.613C170.54,294.718,207.212,194.482,198.909,112.939 M100.034,3.155
	c11.583-0.007,14.134,9.84,14.153,9.944c-5.751,0.389-11.122,3.878-13.902,8.908c-0.037,0.077-0.143,0.335-0.25,0.335
	c-0.122,0-0.208-0.258-0.251-0.335c-2.775-5.03-8.142-8.519-13.901-8.908C85.9,12.995,88.452,3.148,100.034,3.155 M93.331,18.611
	c2.778,1.713,4.962,4.419,5.739,7.59c0.231,0.939,0.586,1.499,0.964,1.499c0.379,0,0.733-0.56,0.966-1.499
	c0.78-3.171,2.958-5.877,5.74-7.59c8.408-5.192,17.948-1.757,21.765,5.711c-1.948,0.332-3.667,0.811-6.011,1.51
	c-3.393,1.168-6.188,2.601-8.563,4.766c-5.353,4.859-10.093,12.389-10.968,21.983c-2.399,26.367,27.83,22.227,29.356,22.1
	c3.905,0,6.855-6.157,6.855-14.311c0-8.166-3.029-14.323-6.855-14.323c-2.34,0-6.396,1.875-6.773,9.182
	c-0.264,5.137,2.247,11.961,5.492,12.385c1.685,0.225,3.223-2.755,3.701-5.77c0.426-2.623,0.203-6.737-2.137-7.329
	c-0.743-0.185-1.486,0.271-1.678,1.011c-0.17,0.671,1.451,1.814,1.395,4.839c-0.094,4.508-4.629,2.254-4.018-4.909
	c0.543-6.352,3.787-5.951,3.924-5.955c1.816,0,4.545,3.782,4.545,10.868c0,6.298-3.037,13.083-8.85,9.541
	c-4.892-3.579-6.822-11.817-5.472-18.193c0.618-2.927,3.14-10.889,11.284-10.889c11.744,0,22.696,6.172,31.429,17.658
	c-0.958,3.083-7.015,14.793-26.255,26c-0.414,0.21-1.021,0.56-1.055,0.549c-5.876-2.394-11.379-3.883-17.786-3.52
	c-5.669,0.324-11.205,1.366-16.719,2.655c-1.081,0.254-2.197,0.544-3.313,0.544c-1.115,0-2.228-0.291-3.315-0.544
	c-5.512-1.289-11.044-2.331-16.715-2.655c-6.403-0.363-11.913,1.126-17.783,3.52c-0.036,0.011-0.641-0.339-1.054-0.549
	c-19.248-11.207-25.303-22.917-26.256-26c8.734-11.486,19.679-17.658,31.427-17.658c8.144,0,10.668,7.962,11.281,10.889
	c1.351,6.375-0.579,14.614-5.474,18.193c-5.808,3.542-8.849-3.243-8.849-9.541c0-7.086,2.733-10.868,4.551-10.868
	c0.129,0.003,3.376-0.397,3.925,5.955c0.605,7.163-3.925,9.417-4.021,4.909c-0.058-3.025,1.562-4.168,1.393-4.839
	c-0.188-0.74-0.935-1.196-1.675-1.011c-2.342,0.591-2.563,4.706-2.138,7.329c0.483,3.015,2.022,5.995,3.702,5.77
	c3.245-0.424,5.753-7.248,5.491-12.385c-0.378-7.306-4.43-9.182-6.772-9.182c-3.829,0-6.856,6.157-6.856,14.323
	c0,8.154,2.95,14.311,6.856,14.311c1.525,0.127,31.76,4.268,29.354-22.1c-0.876-9.594-5.612-17.124-10.962-21.983
	c-2.38-2.165-5.178-3.597-8.567-4.766c-2.339-0.699-4.065-1.178-6.013-1.51C75.385,16.854,84.92,13.419,93.331,18.611
	 M36.15,129.156c-0.743,5.043-1.035,9.285-1.148,11.926c-0.394,9.506,0.081,19.095,1.398,28.566
	c1.241,8.971,3.245,17.828,5.977,26.409c3.732,11.695,8.858,22.923,14.905,33.601c-6.17,5.615-15.421,7.828-18.54,8.438
	c-16.704-33.22-25.203-76.094-23.319-114.742C19.35,125.331,26.667,128.322,36.15,129.156 M15.543,121.236
	c1.572-26.372,8.263-47.057,17.966-60.844c1.721,4.478,9.258,15.677,26.648,25.885c-14.778,8.896-21.461,27.274-23.705,40.972
	C26.632,126.385,19.09,123.089,15.543,121.236 M58.272,231.373c11.085,19.117,22.071,30.521,30.453,36.539
	c-3.036,7.704-10.231,13.754-12.754,15.705c-14.458-9.724-26.688-25.131-36.311-43.738
	C43.362,239.121,52.049,236.853,58.272,231.373 M90.396,269.085c4.475,3.257,9.044,5.114,9.637,5.307
	c0.596-0.192,5.164-2.05,9.638-5.307c3.159,7.492,9.739,13.293,12.735,15.66c-4.127,2.614-8.424,4.783-12.897,6.423
	c-0.027-0.159-0.042-0.318-0.072-0.475c-0.92-4.761-7.135-5.732-9.404-5.741c-2.269,0.009-8.482,0.98-9.405,5.741
	c-0.027,0.156-0.039,0.315-0.07,0.475c-4.467-1.64-8.768-3.809-12.897-6.423C80.656,282.378,87.241,276.577,90.396,269.085
	 M111.345,267.912c8.382-6.018,19.373-17.422,30.457-36.539c6.216,5.479,14.906,7.748,18.607,8.506
	c-9.626,18.607-21.853,34.015-36.31,43.738C121.574,281.666,114.382,275.616,111.345,267.912 M142.79,229.658
	c6.041-10.678,11.167-21.905,14.898-33.601c2.736-8.581,4.736-17.438,5.984-26.409c1.312-9.472,1.787-19.061,1.396-28.566
	c-0.11-2.641-0.407-6.883-1.146-11.926c9.482-0.834,16.797-3.825,20.722-5.802c1.888,38.648-6.616,81.522-23.315,114.742
	C158.211,237.486,148.958,235.273,142.79,229.658 M163.62,127.249c-2.246-13.697-9.029-31.721-23.71-40.972
	c17.391-10.208,24.928-21.408,26.653-25.885c9.697,13.787,16.392,34.473,17.959,60.844
	C180.98,123.089,173.435,126.385,163.62,127.249 M89.285,304.31c-7.483-2.473-14.617-6.083-21.157-10.564
	c-4.148-2.854-8.066-6.038-11.697-9.444c-2.991-2.809-5.817-5.786-8.48-8.898c-1.817-2.127-3.565-4.309-5.252-6.539
	c-8.09-10.686-14.746-22.641-20.092-34.92c-5.167-11.873-9.244-24.205-12.345-36.773c-3.169-12.841-5.32-25.932-6.454-39.111
	c-1.11-12.967-1.319-26.092-0.243-39.076c0.575-6.961,1.413-13.913,2.667-20.79c1.251-6.845,2.907-13.628,5.15-20.217
	c2.053-6.036,4.523-11.933,7.576-17.537c3.123-5.731,6.838-11.254,11.346-15.994c4.202-4.419,8.927-8.267,14.292-11.188
	c2.237-1.22,4.564-2.272,6.961-3.138c1.215-0.444,2.455-0.834,3.702-1.174c1.134-0.306,2.563-0.774,3.72-0.93
	c3.042-0.563,6.138-0.757,9.229-0.757c2.521,0,8.627,0.397,13.998,3.774c5.917,4.212,11.103,11.188,12.023,21.802
	C95.651,69.119,79.058,71.69,75.805,71.66c-0.497-0.006-0.761-0.475,0.852-2.144c3.817-4.894,5.06-12.384,3.782-18.397
	c-1.573-7.476-6.846-13.316-14.491-13.298c-11.439,0.018-21.655,5.752-29.259,14.039c-7.395,8.067-12.477,18.111-16.101,28.366
	c-4.662,13.188-6.997,27.094-7.935,41.018c-0.86,12.779-0.498,25.639,0.827,38.37c1.338,12.892,3.684,25.68,7.023,38.205
	c3.245,12.165,7.429,24.098,12.716,35.529c5.307,11.488,11.772,22.622,19.757,32.533c8.013,9.951,17.905,18.921,29.321,24.785
	c2.574,1.318,5.229,2.479,7.957,3.449c-0.156,4.255,0.927,8.046,2.396,11.182C90.845,304.895,90.798,304.808,89.285,304.31
	 M101.161,309.88c-0.042,0.054-0.571,0.693-1.127,0.762c-0.556-0.068-1.08-0.708-1.126-0.762
	c-2.822-3.547-7.032-10.424-5.447-18.641c0.448-2.313,4.338-3.354,6.573-3.382c2.235,0.027,6.125,1.068,6.578,3.382
	C108.193,299.456,103.98,306.333,101.161,309.88 M196.259,158.059c-1.131,13.18-3.283,26.271-6.452,39.111
	c-3.102,12.568-7.176,24.9-12.348,36.773c-5.344,12.279-12,24.234-20.089,34.92c-1.688,2.23-3.437,4.412-5.249,6.539
	c-2.665,3.112-5.492,6.09-8.481,8.898c-3.636,3.406-7.548,6.591-11.702,9.444c-6.535,4.481-13.667,8.092-21.151,10.564
	c-1.515,0.498-1.564,0.585-3.369,0.987c1.469-3.136,2.559-6.927,2.401-11.182c2.725-0.97,5.386-2.131,7.956-3.449
	c11.419-5.864,21.31-14.834,29.323-24.785c7.983-9.911,14.442-21.045,19.757-32.533c5.285-11.432,9.468-23.364,12.709-35.529
	c3.339-12.525,5.688-25.313,7.032-38.205c1.32-12.73,1.682-25.591,0.822-38.37c-0.942-13.924-3.274-27.83-7.938-41.018
	c-3.626-10.255-8.706-20.299-16.101-28.366c-7.599-8.287-17.82-14.021-29.259-14.039c-7.647-0.018-12.916,5.822-14.488,13.298
	c-1.281,6.013-0.033,13.504,3.78,18.397c1.613,1.668,1.35,2.138,0.852,2.144c-3.256,0.03-19.839-2.541-18.423-18.824
	c0.923-10.614,6.106-17.59,12.027-21.802c5.371-3.377,11.477-3.774,13.995-3.774c3.094,0,6.188,0.194,9.226,0.757
	c1.233,0.174,2.585,0.624,3.724,0.93c1.252,0.339,2.484,0.729,3.701,1.174c2.397,0.866,4.727,1.918,6.961,3.138
	c5.367,2.921,10.089,6.769,14.289,11.188c4.515,4.739,8.23,10.263,11.352,15.994c3.053,5.604,5.519,11.501,7.575,17.537
	c2.247,6.588,3.897,13.372,5.149,20.217c1.255,6.876,2.088,13.828,2.665,20.79C197.58,131.967,197.375,145.092,196.259,158.059"/>
<path fill="#C42126" d="M161.479,141.598c-0.406-9.691-3.238-39.285-23.367-52.124c-4.357-2.772-10.07-3.995-15.807-4.367
	c-9.886-0.644-17.208,3.136-22.148,3.274H99.91c-4.928-0.138-12.315-3.918-22.199-3.274c-5.734,0.372-11.397,1.595-15.75,4.367
	c-20.127,12.839-22.959,42.433-23.368,52.124c-1.439,34.288,9.396,61.07,12.758,68.455c13.934,30.682,30.75,52.373,47.355,59.752
	l1.329,0.592l1.335-0.592c16.602-7.379,33.423-29.07,47.349-59.752C152.08,202.668,162.917,175.886,161.479,141.598"/>
<path fill="#FFFFFF" d="M129.941,118.328v6.7l1.356-0.204c0,0,0.271-0.039,0.633-0.039c0.739,0,2.104,0.132,2.955,1
	c0.807,0.818,1.06,2.195,0.773,4.006c-0.027,0.063-13.474,58.378-16.03,69.487c-2.944-14.054-18.967-90.77-18.967-90.77
	l-0.066-0.327H97.42l-0.051,0.342c0,0-11.594,74.688-13.91,89.639c-3.025-12.938-15.938-68.309-15.938-68.309
	c-0.04-0.35-0.051-0.689-0.051-1.002c0-1.572,0.368-2.721,1.108-3.428c0.98-0.945,2.471-0.814,2.601-0.8l1.333,0.176l0.012-6.474
	H50.022v6.334l0.995,0.158c0.496,0.097,3.004,0.702,3.417,2.995c0.003,0.039,26.316,113,27.436,117.804l0.078,0.316h3.956
	l0.051-0.343c0.125-0.784,10.834-70.891,12.837-84.02c2.542,13.073,16.18,83.259,16.331,84.035l0.064,0.327h3.531l26.12-118.187
	c0.603-2.45,2.758-2.718,3.659-2.718c0.124,0,0.215,0.008,0.26,0.014l1.289,0.104v-6.82H129.941z"/>
</svg>
